<svg xmlns="http://www.w3.org/2000/svg" viewBox="0 0 96.65 66.22"><defs><style>.cls-1{fill:#fff;}.cls-2{fill:#f88d2a;}.cls-3{fill:#ffad5f;}</style></defs><g id="Layer_2" data-name="Layer 2"><g id="Layer_2-2" data-name="Layer 2"><path class="cls-1" d="M43.25,42.28H47.8V49.4h3.42v3.92h-8Z"/><path class="cls-1" d="M58.11,42.11a5.71,5.71,0,1,1,0,11.38,5.71,5.71,0,1,1,0-11.38Zm0,7.47a1.71,1.71,0,1,0-1.72-1.71A1.71,1.71,0,0,0,58.11,49.58Z"/><path class="cls-1" d="M65.37,42.28H69.8c1.66,0,5.17.16,5.17,2.8a2.22,2.22,0,0,1-1.66,2.21v0a2.62,2.62,0,0,1,2,2.63c0,2.91-3.11,3.37-5.27,3.37H65.37Zm4.72,4.48c.58,0,.85-.31.85-.69s-.29-.68-.85-.68h-.17v1.37Zm0,3.6c.72,0,1-.38,1-.86s-.35-.85-1-.85h-.2v1.71Z"/><path class="cls-1" d="M79.35,42.28h4.36l4.21,11H83l-.38-1.45H80.09l-.43,1.45H75.14Zm2.54,6.81-.49-2.24h0l-.49,2.24Z"/><path class="cls-1" d="M88.68,42.28h4.55V49.4h3.42v3.92h-8Z"/><path class="cls-2" d="M43.11,61.79c0-2.64,2.16-4.58,5.22-4.58a6.76,6.76,0,0,1,2.92.63v3a7.59,7.59,0,0,0-2.6-.59c-1.29,0-1.95.73-1.95,1.67a1.62,1.62,0,0,0,1.69,1.64,1,1,0,0,0,.36,0v-.44h-.87v-2h3.58v4.32a6.24,6.24,0,0,1-3.21.8C45.09,66.22,43.11,64.3,43.11,61.79Z"/><path class="cls-2" d="M55,57.34h3.44l3.34,8.75H57.89l-.3-1.15h-2l-.34,1.15H51.66Zm2,5.4L56.62,61h0l-.38,1.77Z"/><path class="cls-2" d="M63.14,60.31H60.7v-3h8.49v3H66.74v5.78h-3.6Z"/><path class="cls-2" d="M70.13,57.34h6.3v2.93H73.74v.47h2.17v2.07H73.74v.5H76.6v2.78H70.13Z"/><path class="cls-1" d="M11.93,33.45A9.46,9.46,0,0,0,25.37,46.14H23.43V42.27h16A19.59,19.59,0,0,1,29,58.25l-.09,0a19.72,19.72,0,1,1-11.25-37,2.07,2.07,0,0,1,.35,0,15.68,15.68,0,0,1,1.69-.08,20,20,0,0,1,2.82.2,19.37,19.37,0,0,1,4.31,1.12l.09,0a19.6,19.6,0,0,1,6,3.71c.28.25.55.51.81.77h0a13.77,13.77,0,0,0,9.81,4.21A11.47,11.47,0,0,0,48,30.45a10.92,10.92,0,0,0,3.39-2.12,20.61,20.61,0,0,1-10,5.49,19.34,19.34,0,0,1-4,.38,20.91,20.91,0,0,1-8.28-1.85c-1.82-.82-2.56-1.46-3.86-2.08l-.4-.18-.7-.27c-.94-.35-1.06-.44-1.51-.58A7.65,7.65,0,0,0,21,28.93h0c-.32,0-.64-.05-1-.05a9.23,9.23,0,0,0-2.3.29,9.49,9.49,0,0,0-5.79,4.27Z"/><path class="cls-1" d="M59.26,20.15a18.48,18.48,0,0,1-33.34,11l-.47-.63.65.45A19.4,19.4,0,0,0,37.37,34.5,19.56,19.56,0,0,0,56.54,11l-.15-.76.39.67A18.43,18.43,0,0,1,59.26,20.15Z"/><path class="cls-3" d="M57.78,3.43l-1.19-1.8L52.41,2,51.47.55A1.2,1.2,0,0,0,50.69,0a1.22,1.22,0,0,0-1.45,1,1.2,1.2,0,0,0,.18.93l.93,1.42-2,3.7,1.18,1.79L51.5,5.07l4.89,5.18L53.56,3.71Z"/></g></g></svg>